<svg id="Layer_1" data-name="Layer 1" xmlns="http://www.w3.org/2000/svg" xmlns:xlink="http://www.w3.org/1999/xlink" viewBox="0 0 236.08 42.259">
  <defs>
    <style>
      .cls-1 {
        fill: url(#Degradado_sin_nombre_73);
      }

      .cls-2 {
        fill: url(#Degradado_sin_nombre_73-2);
      }

      .cls-3 {
        fill: #75351e;
      }

      .cls-4 {
        fill: url(#Degradado_sin_nombre_73-3);
      }

      .cls-5 {
        fill: #140c12;
      }
    </style>
    <linearGradient id="Degradado_sin_nombre_73" data-name="Degradado sin nombre 73" x1="-23.889" y1="22.124" x2="58.011" y2="32.046" gradientUnits="userSpaceOnUse">
      <stop offset="0.035" stop-color="#ecb51a"/>
      <stop offset="0.253" stop-color="#faf5b3"/>
      <stop offset="0.464" stop-color="#ceaa54"/>
      <stop offset="0.549" stop-color="#c2963b"/>
      <stop offset="0.629" stop-color="#ba892c"/>
      <stop offset="0.691" stop-color="#b78526"/>
      <stop offset="0.736" stop-color="#b9892a"/>
      <stop offset="0.78" stop-color="#c19536"/>
      <stop offset="0.825" stop-color="#cda94a"/>
      <stop offset="0.87" stop-color="#dec566"/>
      <stop offset="0.871" stop-color="#dec667"/>
    </linearGradient>
    <linearGradient id="Degradado_sin_nombre_73-2" x1="282.896" y1="37.139" x2="152.232" y2="48.003" gradientTransform="translate(-5.343 -5.174) rotate(-2.32)" xlink:href="#Degradado_sin_nombre_73"/>
    <linearGradient id="Degradado_sin_nombre_73-3" x1="12.289" y1="17.662" x2="241.526" y2="17.662" xlink:href="#Degradado_sin_nombre_73"/>
  </defs>
  <title>3d68363e-e6d4-469e-98db-1f20950fe4a9</title>
  <g>
    <polygon class="cls-1" points="34.465 36.539 0 42.259 11.133 28.165 3.6 17.169 34.791 11.992 34.465 36.539"/>
    <polygon class="cls-2" points="206.737 41.482 236.08 37.475 225.55 26.639 234.017 13.988 208.452 17.979 206.737 41.482"/>
    <polygon class="cls-3" points="17.737 30.268 34.499 36.543 34.692 22.335 17.737 30.268"/>
    <polygon class="cls-3" points="206.734 41.536 220.088 30.268 208.077 17.804 206.734 41.536"/>
    <path class="cls-4" d="M220.088,30.268c-67.989,17.513-134.382-17.508-202.351,0,0-10.086,0-15.128,0-25.214,67.969-17.508,134.362,17.513,202.351,0C220.088,15.139,220.088,20.182,220.088,30.268Z"/>
    <g>
      <path class="cls-5" d="M30.019,10.548c.813-.141,1.536-.281,1.721-.345-.044.273-.187,1.423-.238,2.493a.332.332,0,0,1-.473.145,4.166,4.166,0,0,0-.252-1.159c-.161-.331-.523-.456-1.158-.346l-.992.171c-.432.075-.465.111-.519.715l-.245,2.76c-.041.444-.01.47.32.413l.839-.146c.661-.114.806-.264,1.011-1.049l.1-.393c.1-.158.424-.2.485-.068-.071.5-.128,1.084-.193,1.689s-.074,1.168-.1,1.673c-.081.14-.409.212-.48.1l-.027-.386c-.049-.741-.2-.84-.858-.726l-.839.145c-.33.058-.373.111-.4.539l-.165,1.934a2.9,2.9,0,0,0,.07,1.472c.158.238.38.309,1.308.148,1.106-.191,1.543-.313,2.293-2.192a.35.35,0,0,1,.524,0,11.868,11.868,0,0,1-.566,2.565c-.831.113-1.673.243-3.071.484l-1.652.286c-.636.109-1.205.224-1.835.363-.143-.068-.2-.45-.027-.541l.419-.151c.579-.209.662-.333.788-1.808l.517-5.9c.106-1.284.069-1.574-.549-1.592l-.315-.009a.389.389,0,0,1,0-.546c.6-.073,1.253-.17,1.749-.256Z"/>
      <path class="cls-5" d="M32.359,20.053a3.3,3.3,0,0,1,.055-.938l1.159-7.843c.079-.57.043-.736-.207-.857l-.392-.2a.357.357,0,0,1,.014-.374,9.2,9.2,0,0,1,2.282-.839.137.137,0,0,1,.149.136c-.105.666-.209,1.239-.329,2.078l-1.111,7.526c-.07.444-.071.724.107.7.281-.038.9-1.069,1.146-1.537.139-.035.287.1.289.3A2.89,2.89,0,0,1,33.267,20.6C32.628,20.685,32.4,20.359,32.359,20.053Z"/>
      <path class="cls-5" d="M38.938,18.565a9.666,9.666,0,0,1,.043-2.246.358.358,0,0,1,.5-.015A4.365,4.365,0,0,0,40,17.88a1.847,1.847,0,0,0,1.78,1.059,1.643,1.643,0,0,0,1.361-2,2.6,2.6,0,0,0-1.263-1.926l-.347-.247A3.482,3.482,0,0,1,39.9,12.338a3.029,3.029,0,0,1,2.858-3.478,3.7,3.7,0,0,1,2.427.613,12.743,12.743,0,0,0-.381,2.091.321.321,0,0,1-.5.046c.053-1.134-.479-2.136-1.558-2.037a1.618,1.618,0,0,0-1.392,1.8,2.3,2.3,0,0,0,1.254,1.694l.428.285a3.562,3.562,0,0,1,1.723,2.719,3.142,3.142,0,0,1-3.12,3.594A2.874,2.874,0,0,1,38.938,18.565Z"/>
      <path class="cls-5" d="M50.221,13.64c.1,1.583-2.058,2.459-3.08,2.847a2.836,2.836,0,0,0-.019.742c.026.415.221.834.606.811a2.544,2.544,0,0,0,1.607-1.181.306.306,0,0,1,.279.337,3.224,3.224,0,0,1-2.692,2.021c-.927.058-1.427-.7-1.488-1.681a5.706,5.706,0,0,1,1.493-4.027A2.989,2.989,0,0,1,48.9,12.49,1.208,1.208,0,0,1,50.221,13.64Zm-2.264-.012a5.759,5.759,0,0,0-.756,2.177,2.618,2.618,0,0,0,1.169-.953,2.553,2.553,0,0,0,.383-1.32c-.011-.169-.112-.348-.268-.338S48.134,13.355,47.958,13.628Z"/>
      <path class="cls-5" d="M53.414,13.263l-.528,1.831h.025c.662-1.22,1.713-2.835,2.8-2.866.567-.016.723.472.734.872a8.887,8.887,0,0,1-.5,1.907h.039c.829-1.67,1.866-2.839,2.795-2.865a.887.887,0,0,1,.878.914,4.622,4.622,0,0,1-.22,1.33c-.223.775-.52,1.677-.875,2.78-.071.218-.042.34.062.337.231-.007.769-.622,1.117-1.078.141-.035.273.084.267.284A3.44,3.44,0,0,1,57.34,18.77a.624.624,0,0,1-.571-.584,2.8,2.8,0,0,1,.169-.836c.356-1.088.713-2.16,1-3.246a2.67,2.67,0,0,0,.146-.728c0-.123-.058-.214-.187-.21s-.481.306-.913,1.011a24.591,24.591,0,0,0-1.837,4.316.466.466,0,0,1-.519.354c-.567.016-.985-.142-.9-.467.046-.187.739-2.562,1.222-4.19a2.434,2.434,0,0,0,.16-.728.2.2,0,0,0-.187-.212c-.167,0-.546.309-1.027,1.076a22.517,22.517,0,0,0-1.747,4.313c-.07.218-.2.283-.494.292-.555.016-.972-.143-.892-.468.046-.2.979-3.661,1.153-4.327.14-.527.085-.634-.108-.629-.438.013-.8.593-1.02.907a.293.293,0,0,1-.292-.284,2.529,2.529,0,0,1,2.387-1.823C53.514,12.29,53.53,12.844,53.414,13.263Z"/>
      <path class="cls-5" d="M60.745,17.186a8.7,8.7,0,0,1,.5-2.354l1.7-5.425c.132-.43.094-.584-.138-.771L62.511,8.4a.356.356,0,0,1,.066-.369,8.8,8.8,0,0,1,2.376-.51.136.136,0,0,1,.128.155l-.669,2-1.5,4.549h.025c.612-.981,1.572-2.069,2.462-2.063,1.032.006,1.271.992,1.268,1.563a5.18,5.18,0,0,1-1.036,3,4.345,4.345,0,0,1-3.43,2.012A1.391,1.391,0,0,1,60.745,17.186Zm4-4.1c-.335,0-1.021.579-1.674,1.746a5.929,5.929,0,0,0-.854,2.581c0,.416.177.647.332.648.258,0,.634-.335,1.037-.9a8.461,8.461,0,0,0,1.517-3.5C65.1,13.27,64.921,13.084,64.74,13.082Z"/>
      <path class="cls-5" d="M72.447,13.271c-.025.876-.546,1.493-.895,1.483-.258-.008-.3-.316-.354-.719-.031-.263-.093-.356-.2-.359-.219-.006-.572.615-.928,1.313a34.912,34.912,0,0,0-1.457,3.561c-.084.214-.344.268-.627.26-.322-.01-.835-.146-.691-.636.414-1.4.938-3.006,1.337-4.318.086-.29.1-.489-.037-.493-.22-.007-.723.426-1.1.907a.3.3,0,0,1-.222-.36c.275-.607,1.132-1.676,2.073-1.649.748.021.754.714.512,1.492l-.511,1.617.064,0a18.009,18.009,0,0,1,1.129-2.016c.418-.634.83-1.038,1.294-1.025C72.215,12.34,72.465,12.64,72.447,13.271Z"/>
      <path class="cls-5" d="M76.787,13.149l.333-.707a.572.572,0,0,1,.353-.09,1.312,1.312,0,0,1,.472.116.842.842,0,0,1,.457.424c-.563,1.419-1.216,3.1-1.792,4.776-.062.2-.08.32.01.324a3.038,3.038,0,0,0,1.259-.891c.129.007.251.136.228.351a3.554,3.554,0,0,1-2.667,1.666.569.569,0,0,1-.472-.625,2.5,2.5,0,0,1,.174-.638l.446-1.163-.051,0c-.821,1.16-2.118,2.311-3.059,2.263a.921.921,0,0,1-.737-.992,7.544,7.544,0,0,1,2.139-3.989,3.375,3.375,0,0,1,2.359-1.205A.963.963,0,0,1,76.787,13.149Zm-.866.279c-.193-.01-.433.116-.9.755a7.682,7.682,0,0,0-1.445,3.285l-.007.138c0,.154.065.25.168.255.283.015,1.037-.855,1.455-1.45a12.848,12.848,0,0,0,1.243-2.371C76.3,13.586,76.127,13.439,75.921,13.428Z"/>
      <path class="cls-5" d="M83.561,13.427,84.623,10.5c.2-.541.2-.711-.023-.882l-.342-.272a.356.356,0,0,1,.092-.363,9.125,9.125,0,0,1,2.368-.349.136.136,0,0,1,.117.163c-.255.63-.449,1.155-.742,1.952l-2.37,6.537a6.43,6.43,0,0,0-.293.967c-.007.092.024.187.1.192a3.226,3.226,0,0,0,1.244-.879c.153.026.222.14.179.368a3.584,3.584,0,0,1-2.748,1.616c-.36-.027-.464-.359-.439-.682a5.238,5.238,0,0,1,.341-1.086l.372-.991-.025,0c-.687,1.045-1.817,2.644-3.232,2.537-.565-.042-.906-.669-.815-1.527a6.122,6.122,0,0,1,1.924-3.715,3.553,3.553,0,0,1,2.565-1.09A.8.8,0,0,1,83.561,13.427Zm-3.708,4.725c-.017.23.039.343.168.353a4.939,4.939,0,0,0,1.841-1.592,7.6,7.6,0,0,0,1.225-2.178c.212-.57.144-1.039-.075-1.056-.077-.006-.194,0-.5.226a6.811,6.811,0,0,0-1.358,1.535A8.512,8.512,0,0,0,79.853,18.152Z"/>
      <path class="cls-5" d="M90.9,15.991a5.272,5.272,0,0,1-1.514,3.131,2.866,2.866,0,0,1-2.287.856,1.9,1.9,0,0,1-1.651-2.312,5.336,5.336,0,0,1,1.689-3.33,2.731,2.731,0,0,1,2.1-.768C90.6,13.7,91,14.888,90.9,15.991ZM88.5,14.765a8.728,8.728,0,0,0-1.665,3.873c-.038.383.092.644.336.667.32.032.638-.293,1.051-.933a9.857,9.857,0,0,0,1.324-3.442c.031-.322-.014-.651-.3-.679C89.048,14.231,88.811,14.393,88.5,14.765Z"/>
      <path class="cls-5" d="M96.947,15.371c-.1.871-.676,1.439-1.022,1.4-.256-.03-.271-.342-.288-.747-.008-.265-.062-.364-.164-.376-.218-.025-.625.562-1.041,1.226a35.021,35.021,0,0,0-1.767,3.419c-.1.205-.366.236-.648.2-.32-.038-.818-.221-.633-.694.537-1.363,1.2-2.913,1.715-4.186.111-.281.147-.479.006-.5-.218-.025-.757.36-1.174.808a.3.3,0,0,1-.188-.379c.328-.581,1.276-1.57,2.212-1.46.743.088.688.778.378,1.532l-.652,1.566.064.008a18.014,18.014,0,0,1,1.3-1.908c.474-.6.919-.961,1.381-.907C96.8,14.422,97.021,14.744,96.947,15.371Z"/>
      <path class="cls-5" d="M97.388,19.76c-.1.764-.639,1.313-1.266,1.232a.942.942,0,0,1-.743-1.184c.093-.717.634-1.376,1.3-1.289C97.19,18.586,97.479,19.059,97.388,19.76Z"/>
      <path class="cls-5" d="M100.7,20.215c-.1.762-.649,1.308-1.276,1.222a.943.943,0,0,1-.734-1.189c.1-.717.646-1.371,1.311-1.279C100.513,19.039,100.8,19.514,100.7,20.215Z"/>
      <path class="cls-5" d="M104.034,20.684c-.105.762-.649,1.308-1.276,1.222a.943.943,0,0,1-.734-1.189c.1-.717.646-1.371,1.311-1.279C103.844,19.508,104.132,19.983,104.034,20.684Z"/>
      <path class="cls-5" d="M110.754,16.7l1.214-2.871c.224-.53.232-.7.021-.883l-.327-.29a.354.354,0,0,1,.11-.358,9.1,9.1,0,0,1,2.384-.221.135.135,0,0,1,.108.169c-.287.615-.509,1.13-.843,1.91l-2.706,6.405a6.389,6.389,0,0,0-.343.949c-.012.092.016.188.092.2a3.22,3.22,0,0,0,1.288-.812c.152.035.215.151.16.378a3.576,3.576,0,0,1-2.829,1.468c-.358-.047-.445-.384-.4-.7a5.269,5.269,0,0,1,.4-1.067L109.5,20l-.025,0c-.74,1.008-1.951,2.544-3.36,2.362-.562-.072-.871-.718-.735-1.569a6.119,6.119,0,0,1,2.113-3.609,3.551,3.551,0,0,1,2.621-.951A.8.8,0,0,1,110.754,16.7Zm-3.948,4.521c-.029.229.021.345.149.361a4.914,4.914,0,0,0,1.921-1.491,7.605,7.605,0,0,0,1.337-2.11c.241-.56.2-1.03-.021-1.059-.077-.01-.194-.01-.507.2a6.815,6.815,0,0,0-1.437,1.461A8.5,8.5,0,0,0,106.805,21.225Z"/>
      <path class="cls-5" d="M117.611,18.374c-.185,1.575-2.463,2.051-3.539,2.249a2.807,2.807,0,0,0-.15.727c-.049.413.067.86.452.906a2.539,2.539,0,0,0,1.792-.874.306.306,0,0,1,.215.382,3.223,3.223,0,0,1-3.01,1.506c-.923-.109-1.28-.941-1.165-1.92a5.706,5.706,0,0,1,2.189-3.7,2.983,2.983,0,0,1,2.117-.649A1.208,1.208,0,0,1,117.611,18.374Zm-2.225-.417a5.763,5.763,0,0,0-1.133,2.006,2.613,2.613,0,0,0,1.32-.728,2.549,2.549,0,0,0,.612-1.23c.021-.168-.048-.362-.2-.38A.8.8,0,0,0,115.386,17.957Z"/>
      <path class="cls-5" d="M120.166,23.368a3.235,3.235,0,0,1,.274-.9l2.98-7.349c.211-.535.215-.705,0-.882l-.334-.282a.355.355,0,0,1,.1-.36,9.115,9.115,0,0,1,2.415-.276.135.135,0,0,1,.112.166c-.259.623-.5,1.155-.811,1.942l-2.858,7.053c-.173.415-.24.687-.061.705.282.029,1.124-.827,1.476-1.225.144,0,.256.166.209.362a2.887,2.887,0,0,1-2.753,1.788C120.277,24.044,120.133,23.673,120.166,23.368Z"/>
      <path class="cls-5" d="M129.481,20.592a5.265,5.265,0,0,1-1.5,3.135,2.868,2.868,0,0,1-2.287.864,1.894,1.894,0,0,1-1.659-2.307,5.334,5.334,0,0,1,1.681-3.334,2.734,2.734,0,0,1,2.1-.774C129.181,18.307,129.587,19.489,129.481,20.592Zm-2.4-1.217a8.728,8.728,0,0,0-1.654,3.877c-.036.383.094.643.338.666.321.03.638-.295,1.05-.936a9.856,9.856,0,0,0,1.314-3.446c.03-.322-.016-.651-.3-.678C127.627,18.839,127.39,19,127.083,19.375Z"/>
      <path class="cls-5" d="M133.117,23.719a8.752,8.752,0,0,1,.673-2.311l2.085-5.289c.163-.419.136-.576-.081-.778l-.277-.253a.354.354,0,0,1,.093-.363,8.791,8.791,0,0,1,2.408-.337.135.135,0,0,1,.116.163l-.812,1.944L135.5,20.924l.025,0c.682-.936,1.72-1.951,2.607-1.882a1.377,1.377,0,0,1,1.151,1.65,5.176,5.176,0,0,1-1.251,2.914,4.346,4.346,0,0,1-3.568,1.759A1.391,1.391,0,0,1,133.117,23.719Zm4.285-3.8c-.335-.026-1.062.5-1.8,1.62a5.91,5.91,0,0,0-1.039,2.514c-.032.414.13.658.284.671.257.02.656-.289,1.1-.825a8.461,8.461,0,0,0,1.768-3.384C137.748,20.127,137.582,19.929,137.4,19.915Z"/>
      <path class="cls-5" d="M143.09,20.045a1.553,1.553,0,0,1-.093.426l-1.523,3.646c-.108.27-.079.41.075.421.077,0,.236-.046.511-.29a16.517,16.517,0,0,0,2.894-4.6.947.947,0,0,1,.485-.092,1.3,1.3,0,0,1,.879.4c-.59,1.472-1.219,2.957-1.77,4.432-.064.181-.132.423.035.434.206.014.89-.542,1.238-.92.153.041.223.153.209.368A3.754,3.754,0,0,1,143.2,26c-.321-.021-.57-.361-.386-.812l.867-2.132-.026,0c-.759,1.106-2.3,2.823-3.326,2.755a.735.735,0,0,1-.655-.845,3.182,3.182,0,0,1,.253-.894l1.283-3.137c.077-.2.078-.4-.025-.4-.258-.018-.825.546-1.208.86a.329.329,0,0,1-.194-.384,3.934,3.934,0,0,1,2.774-1.65A.671.671,0,0,1,143.09,20.045Z"/>
      <path class="cls-5" d="M151.6,21.125c-.086,1.583-2.328,2.2-3.39,2.466a2.85,2.85,0,0,0-.1.734c-.022.415.121.854.508.875a2.538,2.538,0,0,0,1.733-.984.307.307,0,0,1,.238.368,3.223,3.223,0,0,1-2.908,1.69c-.928-.051-1.336-.858-1.282-1.842a5.7,5.7,0,0,1,1.953-3.824,2.981,2.981,0,0,1,2.07-.78A1.207,1.207,0,0,1,151.6,21.125Zm-2.245-.276a5.752,5.752,0,0,0-1,2.072,2.623,2.623,0,0,0,1.271-.81,2.547,2.547,0,0,0,.533-1.266c.01-.169-.07-.358-.225-.366S149.566,20.6,149.358,20.849Z"/>
      <path class="cls-5" d="M154.6,20.993l-.687,1.866.052,0c.8-1.214,1.876-2.786,3.14-2.732a.825.825,0,0,1,.773.927,4.907,4.907,0,0,1-.315,1.358c-.278.759-.639,1.637-1.072,2.712-.086.212-.065.337.037.341.193.009.838-.565,1.192-1,.144-.024.267.1.245.3a3.443,3.443,0,0,1-2.792,1.868.623.623,0,0,1-.528-.623,2.78,2.78,0,0,1,.229-.822c.433-1.061.864-2.105,1.232-3.167a2.73,2.73,0,0,0,.2-.716c0-.123-.043-.218-.158-.224-.181-.008-.542.27-1.022.942a26.614,26.614,0,0,0-2.183,4.237c-.1.211-.348.263-.631.25-.322-.014-.82-.158-.67-.645l1.415-4.115c.1-.3.127-.55-.027-.556-.271-.012-.82.458-1.132.783a.257.257,0,0,1-.222-.256,3.153,3.153,0,0,1,2.541-1.726C154.811,20.031,154.734,20.644,154.6,20.993Z"/>
      <path class="cls-5" d="M163.911,22.593a5.254,5.254,0,0,1-1.293,3.225A2.86,2.86,0,0,1,160.4,26.83a1.9,1.9,0,0,1-1.808-2.193,5.323,5.323,0,0,1,1.453-3.436,2.728,2.728,0,0,1,2.04-.909C163.46,20.331,163.943,21.486,163.911,22.593Zm-2.473-1.059a8.723,8.723,0,0,0-1.393,3.977c-.011.385.137.635.382.643.322.009.616-.336.984-1a9.847,9.847,0,0,0,1.082-3.523c.009-.323-.059-.648-.343-.657C161.945,20.964,161.72,21.142,161.438,21.535Z"/>
      <path class="cls-5" d="M166.4,25.832a3.116,3.116,0,0,1-2.593,2.738.387.387,0,0,1-.132-.541,1.889,1.889,0,0,0,1.37-1.515.845.845,0,0,0-.411-.763.68.68,0,0,1-.247-.59.979.979,0,0,1,.9-1.015C165.775,24.157,166.424,24.677,166.4,25.832Z"/>
      <path class="cls-5" d="M170.725,26.362a3.255,3.255,0,0,1,.184-.923l2.227-7.613c.157-.554.145-.723-.087-.878l-.36-.247a.357.357,0,0,1,.065-.37,9.153,9.153,0,0,1,2.374-.515.135.135,0,0,1,.128.154c-.2.646-.377,1.2-.611,2.015l-2.137,7.306c-.13.431-.17.708.011.708.284,0,1.034-.936,1.346-1.365.142-.015.27.14.243.34a2.882,2.882,0,0,1-2.559,2.054C170.9,27.025,170.724,26.67,170.725,26.362Z"/>
      <path class="cls-5" d="M179.684,22.646a5.275,5.275,0,0,1-1.17,3.275,2.864,2.864,0,0,1-2.183,1.1,1.894,1.894,0,0,1-1.889-2.122,5.34,5.34,0,0,1,1.323-3.492,2.732,2.732,0,0,1,2-.989C179.148,20.4,179.674,21.538,179.684,22.646Zm-2.51-.962a8.752,8.752,0,0,0-1.241,4.03c0,.385.161.63.405.628.322,0,.6-.36.945-1.041a9.845,9.845,0,0,0,.948-3.565c0-.323-.083-.646-.367-.644C177.659,21.094,177.441,21.281,177.174,21.684Z"/>
      <path class="cls-5" d="M186.128,21.187l-.5,1.84h.025c.646-1.229,1.676-2.86,2.76-2.906.566-.024.729.462.746.861a8.948,8.948,0,0,1-.476,1.916l.038,0c.809-1.683,1.831-2.866,2.76-2.906a.886.886,0,0,1,.89.9,4.6,4.6,0,0,1-.2,1.333c-.213.78-.5,1.686-.84,2.794-.068.219-.037.341.065.337.232-.011.762-.634,1.1-1.095.141-.037.274.08.27.281a3.449,3.449,0,0,1-2.638,2.1.624.624,0,0,1-.579-.576,2.808,2.808,0,0,1,.158-.839c.343-1.093.685-2.171.963-3.262a2.68,2.68,0,0,0,.137-.729c0-.123-.061-.213-.189-.208s-.478.313-.9,1.024a24.664,24.664,0,0,0-1.782,4.344.467.467,0,0,1-.515.361c-.566.024-.986-.127-.91-.454.044-.187.707-2.572,1.168-4.209a2.376,2.376,0,0,0,.15-.73.2.2,0,0,0-.189-.209c-.167.007-.542.316-1.014,1.091a22.555,22.555,0,0,0-1.691,4.341c-.068.218-.2.285-.491.3-.555.023-.975-.128-.9-.455.043-.2.932-3.676,1.1-4.346.133-.529.076-.635-.117-.627-.437.02-.788.6-1.008.922a.291.291,0,0,1-.3-.28,2.535,2.535,0,0,1,2.364-1.857C186.216,20.213,186.24,20.767,186.128,21.187Z"/>
      <path class="cls-5" d="M197.956,20.781c.11,1.581-2.038,2.47-3.058,2.863a2.874,2.874,0,0,0-.013.741c.028.415.226.833.611.807a2.534,2.534,0,0,0,1.6-1.189.306.306,0,0,1,.282.335,3.219,3.219,0,0,1-2.676,2.035c-.927.063-1.432-.688-1.5-1.671a5.7,5.7,0,0,1,1.465-4.033,2.973,2.973,0,0,1,1.957-1.029A1.208,1.208,0,0,1,197.956,20.781Zm-2.262,0a5.774,5.774,0,0,0-.74,2.179A2.6,2.6,0,0,0,196.115,22a2.543,2.543,0,0,0,.374-1.321c-.012-.169-.115-.347-.27-.336S195.869,20.508,195.694,20.783Z"/>
      <path class="cls-5" d="M201.4,19.932a15.438,15.438,0,0,1-.323,2.779c-.268,1.508-.515,2.813-.706,3.727a5.851,5.851,0,0,1-1.323,3.039,2.3,2.3,0,0,1-1.382.633,1.2,1.2,0,0,1-1.369-.991.846.846,0,0,1,.639-.969.438.438,0,0,1,.383.229c.42.644.718.941.795.935.1-.01.229-.206.331-.648.182-.727.675-3.646.912-5.058a26.777,26.777,0,0,0,.41-2.68c-.015-.169-.046-.228-.136-.22-.257.023-.92.87-1.069,1.085-.156,0-.292-.222-.255-.4.395-.653,1.413-2.026,2.453-2.119A.666.666,0,0,1,201.4,19.932Zm-.5-4.052c.437-.039.748.258.8.841a1.11,1.11,0,0,1-.866,1.329.786.786,0,0,1-.836-.807A1.168,1.168,0,0,1,200.9,15.88Z"/>
      <path class="cls-5" d="M207.515,20.81a5.265,5.265,0,0,1-.823,3.376,2.864,2.864,0,0,1-2.058,1.316,1.9,1.9,0,0,1-2.1-1.915,5.328,5.328,0,0,1,.953-3.607,2.731,2.731,0,0,1,1.89-1.189C206.749,18.635,207.389,19.709,207.515,20.81Zm-2.6-.7a8.73,8.73,0,0,0-.814,4.134c.044.382.226.609.469.582.32-.036.563-.42.832-1.132a9.836,9.836,0,0,0,.572-3.642c-.037-.321-.15-.634-.432-.6C205.339,19.476,205.141,19.684,204.917,20.113Z"/>
      <path class="cls-5" d="M213.216,18.63c.128.868-.278,1.565-.622,1.616-.256.037-.352-.26-.474-.646-.076-.253-.153-.335-.256-.32-.217.032-.456.705-.685,1.454a35.093,35.093,0,0,0-.814,3.761c-.045.225-.291.323-.572.364-.318.047-.847,0-.791-.506.163-1.455.4-3.124.564-4.486.033-.3.018-.5-.123-.479-.217.032-.637.545-.922,1.085a.3.3,0,0,1-.281-.316c.165-.646.822-1.849,1.754-1.985.739-.108.866.573.764,1.381l-.222,1.683.064-.01a17.978,17.978,0,0,1,.76-2.181c.3-.7.637-1.168,1.1-1.235C212.827,17.753,213.125,18.005,213.216,18.63Z"/>
      <path class="cls-5" d="M214.957,22.639a1.245,1.245,0,0,1-.846,1.551c-.5.085-.945-.244-1.06-.911a1.327,1.327,0,0,1,.86-1.616C214.421,21.576,214.837,21.942,214.957,22.639Z"/>
    </g>
  </g>
</svg>
